<svg width="290" height="158" viewBox="0 0 290 158" fill="none" xmlns="http://www.w3.org/2000/svg">
<path d="M131.624 0.161485C128.341 0.298732 125.195 0.504603 124.614 0.64185C124.067 0.744785 121.81 1.01928 119.656 1.22515C113.535 1.73983 106.081 2.80349 102.149 3.62697C101.26 3.83284 99.7209 4.14165 98.7292 4.2789C96.3357 4.69064 92.5401 5.4455 90.4201 5.99449C86.3169 7.02384 82.5213 8.05319 79.5123 8.9453C78.6232 9.18548 77.5632 9.42566 77.2213 9.42566C76.8794 9.42566 76.5374 9.56291 76.4007 9.73447C76.2981 9.90603 75.7168 10.1462 75.1013 10.2835C73.9387 10.5236 73.1522 10.7638 68.1941 12.5137C65.1509 13.5774 63.0309 14.3666 61.6973 14.9499C61.3212 15.0871 59.6457 15.7733 57.936 16.4939C53.2856 18.4153 46.8913 21.4005 44.6004 22.7729C44.0533 23.1161 42.5145 23.9395 41.2152 24.6601C35.4364 27.8511 27.7428 33.0322 22.7163 37.1839C20.2201 39.2426 12.5949 47.2372 10.7142 49.742C7.32905 54.3055 5.14065 57.9425 3.80708 61.2364C3.36256 62.2658 2.88385 63.4324 2.71288 63.8098C-0.159403 70.5006 -0.84328 81.2059 1.10577 89.2005C1.61868 91.2935 2.19997 93.1121 2.71288 94.3473C2.88385 94.7247 3.36256 95.8913 3.80708 96.9207C4.59354 98.8421 8.32067 105.327 9.10713 106.116C9.34649 106.356 9.55165 106.7 9.55165 106.837C9.55165 106.974 9.96198 107.523 10.5091 108.106C11.022 108.655 11.8768 109.65 12.3555 110.302C14.0994 112.567 19.1601 117.576 23.0582 120.939C25.9647 123.409 32.8377 128.247 38.2745 131.644C43.301 134.767 55.4398 140.565 62.2102 143.104C63.4412 143.55 64.7405 144.065 65.1167 144.237C65.4928 144.442 66.8948 144.923 68.1941 145.335C69.5277 145.746 70.7587 146.227 70.9296 146.364C71.1348 146.467 71.8187 146.707 72.4684 146.844C73.118 146.982 73.8703 147.222 74.178 147.359C74.4516 147.496 75.5458 147.874 76.5716 148.148C77.5974 148.457 79.5465 149.006 80.8459 149.383C83.6497 150.207 88.3343 151.442 89.5653 151.717C90.044 151.785 92.1298 152.266 94.2156 152.712C100.371 154.05 102.901 154.496 111.107 155.731C113.809 156.143 121.537 157.001 126.529 157.481C133.778 158.167 157.098 158.167 165.031 157.515C168.177 157.241 171.631 156.932 172.656 156.829C179.119 156.28 191.395 154.53 196.934 153.364C203.157 152.06 204.764 151.717 206.303 151.271C207.192 150.996 208.184 150.79 208.492 150.79C208.97 150.79 210.201 150.481 214.373 149.246C219.194 147.874 220.049 147.599 220.528 147.359C220.836 147.222 221.588 146.982 222.237 146.844C222.887 146.707 223.605 146.467 223.776 146.33C223.981 146.192 224.665 145.884 225.315 145.712C226.785 145.266 231.059 143.688 231.983 143.242C232.359 143.07 233.521 142.59 234.547 142.212C243.062 138.953 255.303 132.125 262.073 126.875C262.278 126.703 263.817 125.502 265.493 124.199C272.776 118.537 281.017 108.69 284.368 101.724C285.667 98.9794 286.83 96.2344 287.206 94.9306C288.368 91.0191 288.642 89.8868 289.257 86.284C291.035 75.8189 289.086 66.2459 283.137 56.0897C281.837 53.8937 278.931 49.7763 278.315 49.2273C278.213 49.1244 277.495 48.3009 276.777 47.3402C274.828 44.904 269.596 39.7573 266.313 37.0466C262.313 33.7184 249.285 24.866 248.396 24.866C248.327 24.866 247.438 24.3856 246.447 23.8023C242.925 21.7093 236.736 18.7242 231.299 16.4939C229.623 15.7733 227.914 15.0528 227.538 14.8812C226.614 14.4695 219.536 11.9647 216.766 11.0726C215.535 10.6952 213.928 10.1805 213.176 9.94034C212.424 9.70016 210.885 9.21979 209.757 8.91099C208.628 8.60218 207.261 8.15613 206.679 7.98457C203.465 6.9209 189.001 3.76422 185.137 3.28386C184.009 3.1123 182.299 2.8378 181.376 2.63193C179.393 2.18588 174.982 1.63689 169.921 1.19084C167.938 1.01928 165.305 0.710474 164.108 0.538915C161.167 0.0585499 139.215 -0.181633 131.624 0.161485ZM156.585 22.0867C157.816 22.3269 158.945 22.6357 159.15 22.8416C159.321 23.0131 159.765 23.1504 160.176 23.1504C160.552 23.1504 161.167 23.3562 161.543 23.6307C161.919 23.8709 162.603 24.214 163.014 24.3513C164.723 24.866 168.143 27.1992 170.502 29.4294C175.289 33.9929 178.127 39.5171 179.187 46.3451C179.529 48.747 179.529 49.6047 179.051 52.4869C178.298 56.9132 178.093 57.119 174.571 57.1533C170.947 57.1533 167.425 57.8053 165.339 58.8689C163.492 59.7953 162.74 60.7904 164.142 60.4473C164.587 60.3443 165.578 60.0355 166.33 59.7267C168.177 59.0405 171.391 59.0405 172.896 59.761C174.469 60.4816 175.392 62.0599 175.392 63.9128C175.392 66.9322 173.238 68.785 169.818 68.785C167.561 68.785 165.783 67.9615 163.937 66.0744C163.219 65.2852 162.501 64.6676 162.398 64.6676C162.261 64.6676 161.851 64.9421 161.441 65.2509C161.065 65.594 159.628 66.6234 158.329 67.5841C156.996 68.5105 155.901 69.4026 155.901 69.5399C155.901 69.6771 156.414 69.7801 157.03 69.7458C158.5 69.7114 158.979 69.9859 158.979 71.0153C158.979 72.2162 157.919 72.6279 154.397 72.8338L151.285 72.9711L148.003 75.167C146.19 76.3679 144.549 77.363 144.344 77.363C143.934 77.363 143.25 79.3874 142.258 83.7106C141.54 86.7987 141.335 87.5536 140.377 91.0877C139.693 93.5581 138.121 99.8715 137.779 101.381C137.642 102.033 137.197 103.817 136.787 105.327C135.83 108.998 135.864 109.17 137.266 109.753C138.873 110.44 138.839 111.4 137.197 112.533C136.479 113.013 135.795 113.39 135.659 113.39C135.522 113.39 134.393 114.008 133.162 114.763C131.931 115.518 130.735 116.135 130.495 116.135C129.777 116.135 129.23 115.38 129.23 114.351C129.23 113.219 128.888 113.15 127.999 114.111C126.734 115.518 124.169 116.513 121.878 116.547C120.032 116.547 119.519 116.41 118.459 115.621C115.895 113.631 114.664 110.886 114.322 106.219C113.809 99.1852 116.339 92.1857 121.024 87.6908C122.973 85.8723 126.597 84.2253 128.82 84.2253C130.222 84.2253 132.821 85.1861 133.539 85.9752C133.846 86.3183 134.291 86.6271 134.53 86.6271C134.906 86.6271 135.556 84.0194 135.932 80.9314L136.137 79.5246L134.735 79.3187C131.795 78.9413 129.811 76.4709 129.811 73.2112C129.811 71.1868 130.222 70.1575 131.692 68.8193C132.581 67.9615 132.342 67.5498 131.282 68.0988C129.914 68.8193 128.717 67.9272 129.23 66.5548C129.47 65.9371 131.555 64.6333 133.06 64.1872C133.504 64.05 133.607 63.7755 133.47 63.055C133.333 62.2315 133.539 61.0992 134.735 56.4671C134.838 56.1583 134.462 55.8495 133.846 55.6436C130.769 54.6486 129.675 53.7565 128.751 51.4919C128.068 49.8449 128.068 49.2616 128.751 47.1686C129.675 44.2864 132.171 42.7081 135.795 42.7081C138.326 42.7081 138.086 42.9483 138.804 39.62C139.044 38.5907 139.42 37.0123 139.693 36.1202C140.241 34.2331 140.309 32.7577 139.83 32.7577C139.215 32.7577 139.454 31.4195 140.138 31.0764C141.164 30.5274 144.959 30.5274 145.301 31.0421C145.472 31.3166 145.541 31.6254 145.438 31.7626C145.37 31.8999 145.062 33.0665 144.788 34.336C144.481 35.6399 144.036 37.5613 143.763 38.5907C143.489 39.62 143.113 41.1641 142.908 41.9875C142.463 43.8747 142.6 44.2521 143.968 44.9383C144.994 45.4873 145.062 45.4873 145.78 44.8011C147.216 43.4629 148.515 44.2521 148.139 46.2422C148.003 46.9284 148.105 47.1686 148.516 47.1686C148.789 47.1686 149.131 46.8255 149.234 46.3794C149.61 44.7668 150.157 42.4679 150.636 40.4778C150.909 39.3455 151.285 37.7329 151.456 36.8751C151.661 36.0173 151.969 34.9193 152.174 34.3703C152.482 33.6841 152.448 33.3067 152.14 32.9635C151.935 32.689 151.798 32.1057 151.866 31.6597C151.969 30.9391 152.208 30.8362 154.192 30.6646C155.423 30.5274 156.619 30.5274 156.859 30.596C157.474 30.8705 157.372 32.3802 156.38 36.0859C155.901 37.9387 155.286 40.3063 155.047 41.3356C154.807 42.365 154.123 45.0756 153.508 47.3402C152.926 49.6047 152.243 52.3154 152.003 53.3447C151.73 54.3741 151.183 56.5357 150.772 58.0798C150.259 60.1041 150.088 61.4423 150.225 62.5403C150.362 63.4324 150.499 64.599 150.567 65.1823C150.67 66.2116 151.285 66.6234 151.969 66.1087C152.277 65.9028 154.089 59.1091 155.765 51.8007C156.038 50.6684 156.483 48.8842 156.722 47.8548C157.132 46.2422 157.714 44.0462 158.534 40.7523C158.671 40.169 158.534 39.9974 157.919 39.8945C157.303 39.8259 157.064 39.5514 156.996 38.8652C156.893 38.076 157.03 37.9044 157.85 37.7329C158.363 37.5956 159.15 37.3554 159.594 37.1839C161.03 36.6006 165.305 36.8065 167.356 37.5956C169.921 38.5564 171.118 39.62 171.767 41.6444C172.622 44.3207 172.383 46.0706 170.81 48.7126C169.442 50.9429 164.929 53.5849 162.33 53.6535C161.783 53.6878 161.372 53.8594 161.372 54.031C161.372 54.6486 162.227 57.119 162.432 57.119C162.535 57.119 163.321 56.7416 164.176 56.2955C166.536 55.0603 169.271 54.3741 172.691 54.2025C174.4 54.1339 175.905 53.9623 176.042 53.8594C176.144 53.7222 176.213 51.5948 176.213 49.1244C176.178 45.4187 176.042 44.2178 175.426 42.3993C174.263 39.071 173.34 37.2525 171.494 34.8164C168.04 30.2186 163.869 27.3364 158.021 25.4836C154.841 24.4542 146.84 24.3856 143.763 25.3463C128.341 30.1157 121.058 45.1442 127.076 59.864C127.349 60.5159 127.794 61.5109 128.068 62.0256C129.299 64.2216 127.315 65.7656 125.879 63.7069C123.52 60.2757 122.049 54.9574 122.049 49.742C122.049 44.2864 123.52 39.2769 126.46 34.7821C133.128 24.6258 144.446 19.8564 156.585 22.0867ZM66.1083 61.4423C66.9289 61.7511 66.758 62.8834 65.7664 63.5353C64.5696 64.2902 64.3302 64.9764 61.6973 75.6474C61.4579 76.6767 61.0818 78.1521 60.8766 78.907C60.2953 81.103 60.3979 81.3431 62.1418 82.3725C63.0308 82.8872 65.2193 84.2596 66.9973 85.4262C73.0155 89.3378 73.5626 89.5436 73.9387 87.931C75.0329 83.2989 75.9903 79.5932 76.7084 76.8483C77.0161 75.716 77.4949 73.9318 77.7342 72.9024C78.0078 71.8731 78.5207 69.7801 78.931 68.3047C79.82 64.9078 79.82 64.9764 78.7942 63.4324C77.4607 61.4423 77.871 61.2364 83.2394 61.2364C85.7698 61.2364 88.0266 61.3394 88.3343 61.4423C89.1891 61.7854 88.984 62.8491 87.8214 63.7069C87.0349 64.3588 86.693 65.0107 86.3169 66.5891C86.0775 67.687 85.633 69.5399 85.3252 70.6722C85.0175 71.8045 84.5388 73.5887 84.2994 74.618C84.0259 75.6474 83.1026 79.2844 82.2136 82.6813C80.1278 90.8132 80.1962 90.4014 80.6065 90.4014C80.8117 90.4014 81.393 90.2299 81.9059 90.0583C83.171 89.578 84.0943 89.9211 84.0943 90.9161C84.0943 91.4651 83.2736 92.4945 81.2904 94.3473C78.76 96.6805 78.4181 97.1609 78.042 98.7392C77.5632 100.969 76.8794 103.646 75.751 108.072C74.691 112.258 74.6568 112.841 75.58 113.699C76.5032 114.557 76.2297 115.964 75.1355 116.273C73.8703 116.581 67.4761 116.513 66.5186 116.135C65.2876 115.689 65.356 114.42 66.6212 113.493C67.1341 113.082 67.6812 112.395 67.7838 111.949C67.8864 111.503 68.1941 110.234 68.5019 109.101C68.7754 107.969 69.4935 105.19 70.0748 102.925C71.7845 96.4746 71.7845 96.7834 69.9038 95.6511C69.0148 95.1365 66.2451 93.3522 63.7489 91.671C61.2528 90.024 59.0302 88.6858 58.8592 88.6858C58.3121 88.6858 58.1753 89.0633 57.6282 91.4651C57.1495 93.5238 56.9443 94.3816 55.5424 99.597C54.8243 102.17 54.1746 104.847 53.5592 107.42C53.3198 108.552 52.9779 109.685 52.8753 109.891C52.7385 110.062 52.6017 110.886 52.5675 111.64C52.5333 112.67 52.7385 113.253 53.2856 113.871C54.3114 114.969 53.7985 115.998 52.0888 116.341C50.1398 116.719 43.7113 116.273 43.3694 115.724C42.8565 114.934 43.0274 114.145 43.7455 113.905C44.7371 113.596 45.4552 112.361 45.9681 110.062C46.6862 106.802 47.8146 102.342 48.3959 100.489C49.1139 98.2245 48.943 97.5726 47.5752 97.1265C46.0023 96.5776 44.1558 94.7247 43.3352 92.8719C42.07 89.9897 42.9591 85.9066 45.3184 83.8479C46.5836 82.7156 49.9688 81.103 51.4733 80.8971C53.2856 80.6569 53.6959 80.1765 54.243 77.912C54.4482 76.9512 54.8585 75.167 55.1663 73.9318C55.474 72.6966 55.8843 71.0839 56.0553 70.3291C56.1921 69.5742 56.4998 68.5105 56.705 67.9958C57.3205 66.4175 57.1495 64.3931 56.3288 63.2951C55.7476 62.4717 55.6792 62.1972 56.0553 61.7511C56.3972 61.3394 57.3547 61.2364 61.0134 61.2364C63.5438 61.2364 65.8006 61.3394 66.1083 61.4423ZM120.682 71.3584C121.024 71.7701 121.024 72.1819 120.75 73.1769C120.203 74.9268 119.69 76.8483 119.143 79.0786C118.904 80.1079 118.425 81.8921 118.117 83.0244C117.809 84.1567 117.365 85.9409 117.091 86.9703C116.852 87.9996 116.373 89.7838 116.066 90.9161C115.758 92.0484 115.347 93.6611 115.176 94.5189C114.971 95.3766 114.732 96.3031 114.629 96.5776C114.493 96.8521 114.219 97.95 113.98 98.9794C113.433 101.381 112.68 104.435 111.962 107.043C110.8 111.4 110.697 112.43 111.484 113.493C111.86 114.008 112.133 114.797 112.065 115.209C111.928 116.101 110.458 116.41 106.081 116.444C102.832 116.478 101.533 116.101 101.533 115.106C101.533 114.248 101.602 114.248 99.6867 115.312C97.7034 116.444 95.9595 116.478 94.8311 115.415C94.3866 115.003 94.0105 114.454 94.0105 114.214C94.0105 113.39 93.395 113.39 92.4034 114.214C90.7963 115.552 88.6421 116.478 86.5562 116.684C83.9575 116.959 82.3846 116.444 80.9484 114.831C77.8368 111.366 78.76 105.67 83.0343 101.896C84.2994 100.798 87.5478 98.7392 88.7788 98.2588C90.7963 97.504 96.2331 94.6561 97.0879 93.9355C98.9344 92.3915 98.7634 89.1662 96.7802 88.3427C95.1047 87.6565 93.7027 88.2398 92.4034 90.1612C90.1808 93.4552 90.044 93.5924 88.0607 93.764C86.4878 93.9012 86.1117 93.7983 85.462 93.1464C83.6497 91.3279 86.1117 87.382 90.2492 85.5292C90.8988 85.2547 92.5743 84.8086 93.9763 84.5684C96.2331 84.1567 96.7802 84.1567 98.7634 84.6714C101.465 85.3919 103.14 86.6271 104.2 88.6858C105.329 90.9504 105.158 93.4209 103.414 99.4941C103.174 100.42 102.764 101.896 102.559 102.754C102.354 103.611 101.943 105.155 101.67 106.185C100.61 110.096 100.542 110.474 100.883 110.817C101.054 110.988 101.465 111.16 101.807 111.16C102.525 111.16 102.764 112.533 102.217 113.253C101.738 113.768 101.875 113.836 102.696 113.528C103.209 113.322 103.927 111.263 104.987 107.043C105.192 106.288 105.534 104.881 105.807 103.955C106.32 102.136 107.893 95.857 108.372 93.8326C109.09 90.6073 111.039 83.2989 111.996 80.0393C112.68 77.7061 112.612 75.9219 111.791 75.2013C110.116 73.7602 111.791 72.6623 117.365 71.53C118.083 71.3927 118.767 71.1869 118.869 71.0496C119.246 70.6722 120.237 70.8437 120.682 71.3584ZM235.163 74.4121C237.351 75.6131 237.864 78.6325 236.462 81.7206C235.368 84.0881 232.94 86.6958 232.017 86.5585C231.265 86.4556 231.196 86.1125 231.675 83.7793C231.88 82.6127 231.778 82.3382 230.854 81.3774C228.803 79.2501 228.939 76.5738 231.196 74.9611C232.701 73.8632 233.898 73.6916 235.163 74.4121ZM153.816 75.2699C156.79 77.363 153.713 83.2303 149.678 83.196C147.832 83.1617 146.327 81.549 146.327 79.4903C146.327 78.5296 147.661 76.3336 148.823 75.3729C150.191 74.2406 152.311 74.2063 153.816 75.2699ZM153.303 84.4312C154.226 84.7743 154.055 85.9752 151.935 93.8326C151.661 94.862 151.285 96.3374 151.114 97.0922C150.943 97.8471 150.465 99.6999 150.088 101.21C149.678 102.719 149.131 104.812 148.857 105.842C148.584 106.871 148.105 108.793 147.797 110.096C147.319 112.361 147.319 112.464 148.003 113.425C148.994 114.763 148.926 115.724 147.832 116.135C146.874 116.513 140.48 116.547 139.146 116.17C137.847 115.826 137.847 114.557 139.112 113.425C140.104 112.567 140.446 111.743 141.369 107.9C141.608 106.871 142.292 104.16 142.908 101.896C144.207 96.9207 144.857 94.2444 145.37 91.8425L145.78 89.9897L144.686 89.1319C144.07 88.6858 143.592 88.1025 143.592 87.8624C143.592 87.1418 144.686 86.3527 146.156 85.9752C146.908 85.8037 148.515 85.3576 149.746 84.9802C152.345 84.191 152.585 84.1567 153.303 84.4312ZM164.04 84.6371C164.279 84.8772 164.45 85.735 164.45 86.5928V88.1369L165.92 86.7301C167.425 85.2547 169.442 84.2253 170.844 84.2253C172.793 84.2253 174.708 85.9752 174.708 87.7594V88.7545L175.905 87.6908C180.111 84.0194 187.189 83.2646 190.916 86.1125C192.933 87.6565 193.857 89.4407 193.857 91.9112C193.857 93.0434 193.72 94.4159 193.515 94.9992C193.173 96.1658 191.6 102.376 191.053 104.812C190.847 105.67 190.574 106.494 190.437 106.7C190.266 106.871 190.061 107.935 189.924 108.998L189.685 110.92L190.642 111.057C192.147 111.229 192.113 112.327 190.54 113.836C188.898 115.449 187.496 116.204 186.129 116.204C184.932 116.204 183.256 115.277 183.256 114.591C183.256 114.351 183.017 113.974 182.744 113.733C182.299 113.356 182.06 113.425 181.273 114.145C178.811 116.41 174.982 117.405 172.246 116.513C169.921 115.724 168.211 112.91 168.211 109.822C168.211 106.837 169.066 104.915 171.494 102.513C173.306 100.729 174.503 99.9744 178.914 97.8128C181.786 96.3717 184.316 95.2051 184.487 95.2051C184.966 95.1708 186.539 93.7297 186.984 92.9062C187.531 91.8425 187.462 89.9897 186.847 89.1319C186.197 88.2055 184.522 87.8281 183.256 88.3427C182.675 88.5829 181.718 89.6123 180.863 90.9504C179.222 93.4895 178.743 93.8326 176.623 93.8326C174.811 93.8326 174.024 93.1807 174.024 91.7396V90.7102L172.93 91.568C172.314 92.0141 171.254 92.4945 170.571 92.6317C169.442 92.8376 169.169 92.7346 167.972 91.6367C166.843 90.6073 166.501 90.5044 166.057 90.8475C165.373 91.3622 163.834 94.759 163.219 97.1609C162.945 98.1559 162.501 99.8715 162.193 100.935C161.919 102.033 161.509 103.611 161.338 104.469C161.167 105.327 160.894 106.322 160.723 106.7C160.586 107.077 160.176 108.518 159.834 109.891C159.218 112.601 159.15 112.327 160.825 114.626C161.543 115.552 160.449 116.032 156.996 116.204C150.738 116.547 148.96 115.792 151.114 113.665C151.901 112.876 152.414 111.949 152.721 110.645C153.679 106.734 154.157 104.915 154.67 102.925C154.978 101.793 155.457 100.009 155.73 98.9794C155.97 97.95 156.448 96.0972 156.756 94.862C157.064 93.6267 157.406 91.9798 157.508 91.2249C157.645 89.9211 157.577 89.7495 156.619 89.1662C156.038 88.8231 155.491 88.3427 155.423 88.1369C155.115 87.3134 156.414 86.3526 158.808 85.5978C160.141 85.1861 161.509 84.7057 161.885 84.5684C162.877 84.1567 163.561 84.1567 164.04 84.6371ZM205.277 84.7743C205.38 85.0831 205.482 85.9409 205.482 86.6958V88.0682L207.055 86.6958C208.628 85.289 211.056 84.2253 212.663 84.2253C213.86 84.2253 216.39 85.9066 216.664 86.8673C216.869 87.8281 217.826 87.8967 218.613 87.0046C218.921 86.6615 220.22 85.8723 221.451 85.2547C223.195 84.3626 223.981 84.191 225.007 84.3283C226.956 84.5684 228.563 85.9409 229.213 87.8967C229.931 89.9554 229.897 90.4358 229.042 93.6954C228.666 95.2051 228.153 97.2638 227.879 98.2931C227.64 99.3225 227.196 101.107 226.888 102.239C225.999 105.43 225.349 108.209 224.905 110.542C224.528 112.567 224.528 112.738 225.281 113.733C226.17 114.934 225.999 115.964 224.87 116.273C223.913 116.513 217.177 116.547 216.185 116.273C214.988 115.929 214.92 114.728 216.083 113.733C217.108 112.841 217.895 110.954 218.305 108.244C218.442 107.42 218.681 106.494 218.852 106.185C219.126 105.636 220.699 99.5627 221.28 96.7491C221.451 95.8227 221.759 94.7933 221.93 94.4502C222.511 93.3866 222.408 91.1563 221.725 90.4014C220.323 88.8574 217.861 90.3328 217.108 93.1807C216.219 96.4746 215.741 98.2588 214.886 101.724C211.945 113.493 212.15 112.292 212.971 113.425C213.86 114.626 213.894 115.655 213.039 116.135C212.184 116.581 205.141 116.581 203.978 116.135C202.781 115.689 202.747 114.179 203.875 113.768C205.038 113.322 205.141 113.047 208.047 101.381C208.286 100.352 208.765 98.499 209.073 97.2638C210.304 92.3915 210.372 91.7739 209.996 90.9161C209.449 89.7152 208.15 89.5093 206.748 90.3671C205.79 90.9504 205.551 91.3965 205.243 92.8719C205.038 93.8669 204.593 95.6168 204.286 96.7491C203.568 99.3911 202.781 102.548 202.405 104.401C202.234 105.224 201.995 106.013 201.892 106.185C201.79 106.322 201.516 107.523 201.242 108.827C200.969 110.096 200.661 111.469 200.524 111.846C200.388 112.361 200.593 112.841 201.174 113.493C201.653 114.042 202.063 114.66 202.063 114.9C202.063 115.929 201.208 116.135 196.524 116.135C192.044 116.135 191.805 116.101 191.429 115.38C191.087 114.728 191.155 114.523 192.147 113.665C193.173 112.841 193.412 112.258 194.404 108.346C195.019 105.945 196.148 101.484 196.968 98.4647C197.755 95.4453 198.473 92.2886 198.575 91.4994C198.712 90.1269 198.609 89.9211 197.618 89.0633C196.695 88.3084 196.524 87.9653 196.695 87.2448C196.866 86.5585 197.208 86.3183 198.165 86.1125C198.849 86.0095 199.669 85.7693 199.977 85.5978C200.832 85.1174 203.499 84.3283 204.32 84.2596C204.73 84.2596 205.175 84.4655 205.277 84.7743ZM245.079 84.7743C247.746 85.5292 250.618 86.9703 251.2 87.8967C251.644 88.5829 251.644 88.926 250.96 91.1563C250.071 94.0728 249.764 94.5189 248.772 94.5189C247.678 94.5189 247.199 93.8669 247.199 92.3572C247.199 90.1613 246.173 88.8917 244.019 88.3427C240.702 87.5536 238.343 88.8917 238.309 91.6023C238.309 92.8376 238.514 93.1807 240.121 94.7247C241.078 95.6854 242.514 96.8864 243.267 97.4353C245.626 99.1852 247.917 101.484 248.669 102.925C249.729 104.881 249.729 109.204 248.669 111.16C247.746 112.91 245.729 114.831 243.78 115.826C241.66 116.924 237.18 116.924 234.821 115.861C233.932 115.449 233.077 115.106 232.872 115.106C232.701 115.106 232.017 114.591 231.367 113.974L230.205 112.876L230.478 110.68C230.991 107.111 231.572 105.704 232.667 105.567C233.829 105.43 234.171 105.945 234.205 107.729C234.24 109.479 235.505 112.052 236.599 112.635C237.146 112.91 238.069 113.013 239.163 112.91C240.565 112.773 241.078 112.498 242.036 111.469C243.096 110.302 243.164 110.096 243.027 108.381C242.822 106.151 242.583 105.842 238.274 102.548C236.462 101.175 234.513 99.4597 233.932 98.7392C230.273 94.1071 232.803 86.7987 238.753 84.8429C241.01 84.1224 242.685 84.0881 245.079 84.7743Z" fill="#FF0000"/>
</svg>
