<svg width="711" height="279" viewBox="0 0 711 279" fill="none" xmlns="http://www.w3.org/2000/svg">
<path d="M664.02 123.074H39.1458V214.77H664.02V123.074Z" fill="#DDDDDD"/>
<g opacity="0.5">
<path d="M664.02 123.074H39.1458V214.77H664.02V123.074Z" fill="black"/>
</g>
<path d="M127.157 274.281C160.36 272.046 185.465 243.316 183.23 210.111C180.996 176.906 152.268 151.799 119.065 154.034C85.8623 156.268 60.7574 184.998 62.9919 218.203C65.2263 251.408 93.954 276.515 127.157 274.281Z" fill="#343F44"/>
<path d="M62.8761 213.137C62.8761 213.137 62.8761 213.238 62.8761 213.295C62.3918 246.567 88.983 273.937 122.253 274.41C155.523 274.895 182.891 248.302 183.375 215.029C183.375 214.973 183.375 214.928 183.375 214.872L62.8987 213.137H62.8761Z" fill="#343F44"/>
<path d="M80.8177 213.554C80.4799 236.915 99.1421 256.13 122.501 256.468C145.86 256.806 165.074 238.143 165.412 214.782C165.749 191.422 147.087 172.206 123.728 171.868C100.37 171.531 81.1556 190.194 80.8177 213.554Z" fill="#FAFAFA"/>
<path d="M123.729 171.857C100.37 171.519 81.1558 190.183 80.8179 213.543L165.412 214.759C165.75 191.399 147.087 172.184 123.729 171.846V171.857Z" fill="#E0E0E0"/>
<path d="M97.3513 213.791C97.1486 228.016 108.513 239.719 122.749 239.933C136.973 240.136 148.686 228.771 148.889 214.534C149.092 200.308 137.728 188.594 123.492 188.391C109.267 188.189 97.5653 199.554 97.3513 213.791Z" fill="#343F44"/>
<path d="M587.379 274.266C620.602 272.339 645.971 243.843 644.044 210.618C642.117 177.394 613.623 152.022 580.4 153.95C547.178 155.877 521.809 184.373 523.736 217.598C525.663 250.822 554.157 276.194 587.379 274.266Z" fill="#263238"/>
<path d="M523.632 213.137C523.632 213.137 523.632 213.238 523.632 213.295C523.147 246.567 549.738 273.937 583.008 274.41C616.278 274.894 643.646 248.301 644.131 215.029C644.131 214.973 644.131 214.928 644.131 214.872L523.654 213.137H523.632Z" fill="#263238"/>
<path d="M541.573 213.553C541.235 236.913 559.897 256.129 583.256 256.467C606.615 256.805 625.829 238.141 626.167 214.781C626.505 191.42 607.842 172.205 584.484 171.867C561.125 171.529 541.911 190.192 541.573 213.553Z" fill="#FAFAFA"/>
<path d="M584.484 171.857C561.125 171.519 541.911 190.182 541.573 213.543L626.167 214.759C626.505 191.399 607.842 172.183 584.484 171.846V171.857Z" fill="#E0E0E0"/>
<path d="M558.106 213.789C557.904 228.015 569.268 239.718 583.504 239.932C597.728 240.135 609.442 228.77 609.644 214.533C609.847 200.307 598.483 188.593 584.247 188.39C570.022 188.188 558.32 199.552 558.106 213.789Z" fill="#263238"/>
<path d="M202.094 71.4879C202.094 71.4879 113.367 78.0319 80.4799 85.4095C57.3013 90.6132 12.6111 99.5789 13.1517 127.704L16.6995 147.854C16.6995 147.854 0.120853 155.423 0.120853 174.751C0.120853 194.079 -3.92243 224.051 34.7648 225.245C41.1394 225.448 53.258 225.245 53.258 225.245C53.258 225.245 45.8247 142.831 121.544 140.409C198.569 137.953 193.456 224.491 193.456 224.491H514.914C514.914 224.491 501.726 140.184 584.641 140.071C667.557 139.947 654.943 225.042 654.943 225.042C654.943 225.042 685.442 227.678 699.633 202.043C713.824 176.407 710.13 158.16 710.13 158.16L709.657 141.952C709.499 136.433 705.084 131.984 699.577 131.77C699.577 131.77 705.118 90.9624 696.614 83.9002C688.111 76.838 641.518 34.2396 641.518 34.2396L643.736 32.843C647.453 30.5114 646.811 24.9022 642.655 23.4718C624.962 17.3895 589.98 5.3489 581.758 2.47672C580.519 2.0487 579.246 1.77837 577.94 1.677C573.029 1.30531 559.143 0.415496 533.633 0.145173C502.559 -0.181467 379.188 0.145173 379.188 0.145173C379.188 0.145173 336.728 3.63685 313.076 14.0555C288.208 25.0036 202.105 71.4879 202.105 71.4879H202.094Z" fill="#DDDDDD"/>
<g opacity="0.4">
<path d="M22.6123 172.521C19.3912 171.868 14.4581 171.8 12.0029 173.986C10.1783 175.607 9.69401 178.221 9.42371 180.654C9.04078 183.976 8.84931 187.389 9.64896 190.644C10.4373 193.899 12.3407 197.008 15.2803 198.607C18.2198 200.207 22.2631 199.948 24.5494 197.504C26.6443 195.273 26.8808 191.917 26.8245 188.853C26.7457 184.506 27.0948 180.822 26.2952 176.554C26.1375 175.743 25.7095 174.706 25.1914 174.076C24.3355 173.039 23.6822 172.6 22.6235 172.533" fill="black"/>
</g>
<path d="M16.6993 147.854C26.1149 147.877 35.2602 147.336 44.6533 146.705C45.6669 146.638 46.7706 146.525 47.514 145.838C48.415 145.005 48.4826 143.631 48.4938 142.403C48.5389 137.357 48.2911 131.612 44.4618 128.324C42.1192 126.319 38.9093 125.688 35.8459 125.395C28.2886 124.685 20.3597 125.271 13.1516 127.681L16.6993 147.832V147.854Z" fill="#FAFAFA"/>
<path d="M212.287 221.911C212.287 221.911 212.253 221.641 212.208 221.112C212.174 220.56 212.118 219.771 212.05 218.746C211.938 216.651 211.769 213.588 211.555 209.657C211.329 205.714 211.07 200.882 210.507 195.296C209.922 189.72 209.066 183.368 207.185 176.565C205.293 169.773 202.398 162.542 198.118 155.434C193.816 148.384 188.162 141.333 180.594 135.881C165.389 125.068 144.857 118.952 123.391 118.693C101.856 118.434 81.4034 125.237 66.593 136.579C59.1146 142.132 52.9202 148.62 48.1561 155.401C43.3469 162.159 39.833 169.108 37.3664 175.709C34.8661 182.309 33.5484 188.605 32.8051 194.147C31.9941 199.7 32.118 204.554 32.2532 208.497C32.5573 212.428 32.9064 215.48 33.3569 217.507C33.5371 218.521 33.6835 219.298 33.7736 219.839C33.8637 220.368 33.8975 220.639 33.8975 220.639C33.8975 220.639 33.83 220.379 33.7173 219.85C33.6047 219.309 33.447 218.532 33.233 217.53C32.7488 215.502 32.3658 212.45 32.0167 208.508C31.8477 204.566 31.6901 199.689 32.4672 194.113C33.188 188.538 34.4719 182.219 36.961 175.573C39.4275 168.939 42.9302 161.933 47.7506 155.13C52.526 148.305 58.743 141.761 66.2664 136.163C81.1556 124.73 101.744 117.86 123.402 118.119C144.992 118.389 165.614 124.539 180.92 135.453C188.556 140.972 194.233 148.091 198.546 155.187C202.837 162.339 205.732 169.626 207.601 176.452C209.471 183.3 210.293 189.675 210.845 195.262C211.386 200.86 211.611 205.692 211.791 209.645C211.96 213.588 212.084 216.64 212.174 218.746C212.219 219.771 212.253 220.56 212.275 221.112C212.298 221.641 212.287 221.923 212.287 221.923V221.911Z" fill="white"/>
<path d="M215.335 223.332C215.335 223.332 215.313 223.107 215.302 222.656L215.234 220.663C215.178 218.894 215.099 216.281 214.998 212.88C214.806 206.054 214.513 196.052 214.153 183.347C213.804 170.63 213.387 155.188 212.903 137.505C212.779 133.078 212.655 128.516 212.531 123.819C212.373 121.477 212.621 119.078 212.835 116.667C213.004 115.462 213.173 114.257 213.353 113.04C213.601 111.835 213.849 110.63 214.097 109.402C215.234 104.559 216.89 99.7044 219.108 94.9738C221.338 90.2544 223.985 85.5913 227.364 81.2662L227.387 81.2324L227.42 81.2099C244.618 70.3744 263.314 58.5929 283.092 46.1355C288.036 43.0155 293.048 39.8617 298.127 36.6629C303.105 33.2839 308.489 30.4004 314.041 27.7761C319.605 25.1629 325.383 22.8765 331.318 20.8716C334.28 19.8353 337.31 18.9793 340.34 18.0782C343.403 17.3011 346.455 16.4338 349.586 15.803C361.57 13.1448 373.643 11.827 385.469 11.2751C397.306 10.7232 408.918 10.757 420.203 11.3877L420.53 11.4103L420.462 11.7369C415.135 35.5704 410.112 58.0522 405.505 78.6531V78.6981L405.472 78.7432C402.667 83.3612 400.426 88.2157 398.759 93.1153C397.16 98.0262 396.124 103.072 396.484 107.994C396.867 112.939 397.002 117.782 397.126 122.468C397.216 127.165 397.306 131.726 397.396 136.142C397.655 153.825 397.723 169.245 397.768 181.961C397.779 194.667 397.79 204.646 397.802 211.472C397.79 214.873 397.779 217.475 397.768 219.255C397.768 220.133 397.757 220.787 397.745 221.248C397.745 221.699 397.723 221.924 397.723 221.924C397.723 221.924 397.712 221.699 397.7 221.248C397.7 220.787 397.689 220.122 397.678 219.255C397.678 217.486 397.655 214.873 397.633 211.472C397.588 204.646 397.531 194.655 397.464 181.961C397.374 169.256 397.261 153.825 396.968 136.153C396.878 131.738 396.777 127.176 396.675 122.479C396.54 117.782 396.394 112.962 396.011 108.028C395.639 103.016 396.675 97.9135 398.286 92.9576C399.964 88.013 402.194 83.1359 405.032 78.4616L404.999 78.5404C409.582 57.9283 414.594 35.4465 419.899 11.613L420.158 11.9622C408.907 11.3314 397.295 11.3089 385.492 11.8608C373.688 12.4127 361.66 13.7305 349.71 16.3775C346.59 16.9969 343.55 17.8755 340.497 18.6414C337.479 19.5425 334.461 20.3872 331.51 21.4235C325.597 23.4171 319.83 25.6923 314.289 28.2942C308.759 30.9073 303.398 33.7795 298.454 37.1247C293.374 40.3235 288.363 43.4773 283.418 46.586C263.618 59.0321 244.911 70.8024 227.702 81.6153L227.758 81.559C224.424 85.8166 221.778 90.4684 219.559 95.154C217.34 99.8509 215.696 104.672 214.558 109.481C212.024 119.134 213.297 128.663 213.319 137.482C213.759 155.166 214.142 170.608 214.457 183.324C214.761 196.029 214.998 206.031 215.155 212.857C215.223 216.259 215.279 218.872 215.324 220.64C215.335 221.519 215.347 222.183 215.358 222.634C215.358 223.084 215.358 223.31 215.358 223.31L215.335 223.332Z" fill="#263238"/>
<path d="M420.161 13.2893C420.161 13.2893 420.341 13.2667 420.691 13.2555C421.062 13.2442 421.569 13.2217 422.245 13.1992C423.63 13.1654 425.635 13.1203 428.225 13.0527C433.451 12.9514 441.008 12.805 450.401 12.6135C469.244 12.2868 495.486 11.8476 525.163 11.3407H525.298L525.388 11.4421C528.744 15.5532 532.27 19.8784 535.862 24.2712C546.472 37.2804 556.586 49.6815 565.776 60.9562C566.925 62.3641 568.062 63.7608 569.177 65.1349C570.281 66.5316 571.227 68.0522 571.971 69.6178C573.446 72.7716 574.201 76.1506 574.212 79.417C574.246 82.6834 573.57 85.8372 572.399 88.6305C571.216 91.39 570.078 94.0369 568.986 96.5712C564.627 106.652 561.102 114.818 558.647 120.495C557.419 123.299 556.473 125.485 555.809 126.983C555.482 127.703 555.234 128.267 555.054 128.661C554.885 129.044 554.784 129.224 554.784 129.224C554.784 129.224 554.851 129.021 554.998 128.638C555.167 128.233 555.392 127.67 555.696 126.937C556.327 125.417 557.25 123.221 558.433 120.405C560.843 114.717 564.312 106.528 568.603 96.4135C570.54 91.3224 573.953 85.961 573.716 79.4282C573.694 76.2294 572.95 72.9292 571.498 69.8431C570.754 68.3112 569.842 66.8357 568.749 65.4616C567.623 64.0874 566.486 62.702 565.337 61.2941C556.135 50.0307 546.01 37.6408 535.389 24.6428C531.808 20.2501 528.271 15.9249 524.915 11.8138L525.14 11.9151C495.463 12.3432 469.221 12.7261 450.368 12.9964C440.975 13.1091 433.417 13.1992 428.192 13.2555C425.612 13.278 423.596 13.2893 422.211 13.3005H420.657C420.308 13.3005 420.127 13.278 420.127 13.278L420.161 13.2893Z" fill="#263238"/>
<path d="M382.42 112.712C382.42 112.712 382.736 112.678 383.321 112.577C383.896 112.475 384.752 112.25 385.686 111.63C386.61 111.022 387.601 109.986 388.097 108.499C388.356 107.756 388.434 106.934 388.401 106.021C388.378 105.143 388.153 104.208 387.702 103.341C386.801 101.617 384.842 100.175 382.51 100.175C380.134 100.175 377.589 100.187 374.919 100.198C369.558 100.198 363.69 100.209 357.518 100.221C356.043 100.221 354.601 100.795 353.554 101.764C352.495 102.732 351.82 104.073 351.673 105.447C351.527 106.866 351.718 108.251 352.394 109.423C353.047 110.594 354.106 111.484 355.277 111.98C356.46 112.509 357.744 112.43 359.028 112.441C360.289 112.441 361.528 112.441 362.711 112.453C365.087 112.464 367.294 112.475 369.333 112.486C373.331 112.52 376.597 112.554 378.918 112.577C380.01 112.599 380.877 112.622 381.519 112.633C382.116 112.655 382.431 112.667 382.431 112.689C382.431 112.712 382.116 112.734 381.519 112.745C380.866 112.757 379.999 112.779 378.918 112.802C376.597 112.824 373.331 112.858 369.333 112.892C367.306 112.892 365.087 112.914 362.711 112.926C361.517 112.926 360.289 112.926 359.028 112.937C358.386 112.937 357.766 112.959 357.079 112.926C356.404 112.881 355.716 112.734 355.075 112.464C353.791 111.923 352.631 110.966 351.91 109.682C351.166 108.409 350.952 106.843 351.11 105.368C351.268 103.847 352.011 102.372 353.171 101.313C354.331 100.243 355.908 99.6123 357.53 99.6123C363.702 99.6123 369.581 99.6236 374.931 99.6348C377.6 99.6461 380.145 99.6573 382.533 99.6686C385.044 99.6911 387.151 101.268 388.074 103.126C388.547 104.061 388.772 105.053 388.772 105.987C388.795 106.9 388.694 107.812 388.401 108.578C387.849 110.144 386.779 111.202 385.81 111.799C384.819 112.408 383.929 112.599 383.333 112.667C382.736 112.734 382.42 112.678 382.42 112.678V112.712Z" fill="#263238"/>
<path d="M549.029 112.712C549.029 112.712 549.344 112.678 549.93 112.577C550.504 112.475 551.36 112.25 552.295 111.63C553.219 111.022 554.21 109.986 554.705 108.499C554.964 107.756 555.054 106.934 555.009 106.021C554.987 105.143 554.762 104.208 554.311 103.341C553.41 101.617 551.45 100.175 549.119 100.175C546.743 100.175 544.197 100.187 541.528 100.198C536.167 100.198 530.299 100.209 524.127 100.221C522.652 100.221 521.21 100.795 520.163 101.764C519.104 102.732 518.428 104.073 518.282 105.447C518.135 106.866 518.327 108.251 519.003 109.423C519.656 110.594 520.715 111.484 521.886 111.98C523.068 112.509 524.352 112.43 525.636 112.441C526.898 112.441 528.137 112.441 529.319 112.453C531.696 112.464 533.903 112.475 535.942 112.486C539.94 112.52 543.206 112.554 545.526 112.577C546.619 112.599 547.486 112.622 548.128 112.633C548.725 112.655 549.04 112.667 549.04 112.689C549.04 112.712 548.725 112.734 548.128 112.745C547.475 112.757 546.607 112.779 545.526 112.802C543.206 112.824 539.94 112.858 535.942 112.892C533.914 112.892 531.696 112.914 529.319 112.926C528.125 112.926 526.898 112.926 525.636 112.937C524.994 112.937 524.375 112.959 523.688 112.926C523.012 112.881 522.325 112.734 521.683 112.464C520.399 111.923 519.239 110.966 518.518 109.682C517.775 108.409 517.561 106.843 517.719 105.368C517.876 103.847 518.62 102.372 519.78 101.313C520.94 100.243 522.517 99.6123 524.138 99.6123C530.31 99.6123 536.189 99.6236 541.539 99.6348C544.208 99.6461 546.754 99.6573 549.141 99.6686C551.653 99.6911 553.759 101.268 554.683 103.126C555.156 104.061 555.381 105.053 555.381 105.987C555.404 106.9 555.302 107.812 555.009 108.578C554.457 110.144 553.388 111.202 552.419 111.799C551.428 112.408 550.538 112.599 549.941 112.667C549.344 112.734 549.029 112.678 549.029 112.678V112.712Z" fill="#263238"/>
<path d="M695.128 85.5215H661.79C657.218 85.5215 653.028 88.0558 650.899 92.0993C649.154 95.4221 649.019 99.353 650.528 102.788L663.604 132.49L696.986 132.163C696.986 132.163 704.082 94.521 695.128 85.5328V85.5215Z" fill="#FAFAFA"/>
<path d="M232.132 81.321L404.146 78.1559L516.097 76.106L553.016 54.7955C556 53.0722 556.8 49.1075 554.717 46.3592L531.741 16.1619C529.342 13.0081 525.625 11.1497 521.672 11.1159L396.454 10.1022C396.454 10.1022 349.297 7.36515 312.153 28.1687C273.049 50.0649 232.132 81.3322 232.132 81.3322V81.321Z" fill="#263238"/>
<path d="M310.97 13.2113C310.97 13.2113 319.597 17.1422 313.977 20.7916C308.368 24.4297 221.218 79.3841 221.218 79.3841L201.182 70.317C236.67 50.5384 272.519 31.3454 310.97 13.2226V13.2113Z" fill="#455A64"/>
<path d="M224.034 80.7577C224.034 80.7577 223.853 80.814 223.493 80.8929L221.905 81.242C220.486 81.5349 218.425 81.9629 215.789 82.5036C210.473 83.5623 202.77 85.0491 193.219 86.6823C174.118 89.9712 147.583 93.8008 118.108 96.3576C110.743 96.9996 103.535 97.529 96.5743 97.9795C89.614 98.4413 82.9014 98.8581 76.5267 99.4438C63.7774 100.559 52.3458 102.417 43.0654 105.177C33.7624 107.846 26.6445 111.27 21.9705 113.974C19.5715 115.235 17.8708 116.474 16.6545 117.217C16.0688 117.589 15.6183 117.882 15.2804 118.085C14.9651 118.276 14.7961 118.366 14.7961 118.366C14.7961 118.366 14.9426 118.242 15.2354 118.04C15.562 117.814 16.0012 117.51 16.5756 117.116C17.7695 116.339 19.4589 115.066 21.8466 113.771C26.498 111 33.616 107.497 42.9415 104.771C52.2445 101.944 63.6986 100.041 76.4704 98.9031C82.8564 98.3062 89.5689 97.8669 96.5292 97.4051C103.49 96.9433 110.686 96.4139 118.052 95.7719C147.515 93.2264 174.039 89.4644 193.152 86.2768C202.714 84.6887 210.417 83.2695 215.756 82.2783C218.402 81.7827 220.463 81.3885 221.894 81.1181C222.581 80.9942 223.11 80.9041 223.493 80.8253C223.853 80.769 224.045 80.7465 224.045 80.7465L224.034 80.7577Z" fill="#263238"/>
<path d="M708.451 157.789C708.451 157.946 696.986 158.082 682.851 158.082C668.717 158.082 657.24 157.946 657.24 157.789C657.24 157.631 668.706 157.496 682.851 157.496C696.997 157.496 708.451 157.631 708.451 157.789Z" fill="#263238"/>
<path d="M498.707 187.05C498.707 187.208 433.992 187.343 354.174 187.343C274.355 187.343 209.629 187.208 209.629 187.05C209.629 186.893 274.333 186.758 354.174 186.758C434.015 186.758 498.707 186.893 498.707 187.05Z" fill="#263238"/>
<path d="M45.5656 158.757C45.5656 158.915 36.409 159.05 25.1238 159.05C13.8387 159.05 4.68213 158.915 4.68213 158.757C4.68213 158.599 13.8274 158.464 25.1238 158.464C36.4203 158.464 45.5656 158.599 45.5656 158.757V158.757Z" fill="#263238"/>
<path d="M640.594 33.0686C640.594 33.0686 632.913 41.6739 635.931 47.9814C638.95 54.289 670.147 76.3766 670.147 76.3766L692.797 80.6229L640.583 33.0574L640.594 33.0686Z" fill="#455A64"/>
<path d="M425.252 17.6825L420.161 72.6819L511.299 70.0801L548.026 48.7358L524.251 17.6825H425.252Z" fill="#455A64"/>
<path d="M253.711 75.4977C253.711 75.4977 308.695 35.7828 330.387 27.8984C351.324 20.2843 362.238 18.3695 381.902 17.8176C400.7 17.2882 412.154 17.8063 412.154 17.8063L397.625 73.7293L253.711 75.5202V75.4977Z" fill="#455A64"/>
<path d="M245.669 75.6776C245.669 72.1972 247.55 68.9871 250.58 67.275L263.205 60.1791C266.809 58.1516 270.864 57.0929 274.997 57.0929C277.565 57.0929 280.099 57.4984 282.498 58.2868C287.893 60.0552 291.486 65.18 291.711 70.8568C292.015 78.7412 285.697 85.3078 277.802 85.3078H255.299C249.983 85.3078 245.669 80.9939 245.669 75.6776V75.6776Z" fill="#DDDDDD"/>
<path d="M245.669 75.6779C245.669 75.6779 245.703 76.1059 245.816 76.8943C245.917 77.6828 246.21 78.8542 246.919 80.1945C247.663 81.5124 248.902 82.9766 250.794 84.0016C251.74 84.4972 252.843 84.8689 254.037 85.0265C255.231 85.173 256.549 85.0829 257.923 85.0941C263.419 85.0716 269.951 85.0603 277.193 85.0265C278.995 85.0265 280.809 84.8125 282.554 84.148C284.3 83.4947 285.933 82.4697 287.318 81.1181C288.692 79.7665 289.83 78.1108 290.528 76.2411C291.238 74.3713 291.519 72.3214 291.373 70.2827C291.058 66.1828 288.873 62.3983 285.685 60.2019C284.109 59.0756 282.295 58.4336 280.471 58.0055C278.646 57.5663 276.81 57.3635 275.02 57.3635C271.427 57.3635 268.037 58.1632 265.131 59.4811C263.678 60.1343 262.349 60.9566 261.031 61.6662C259.725 62.3983 258.464 63.0966 257.27 63.7612C254.871 65.0903 252.708 66.2842 250.794 67.3542C248.89 68.3792 247.651 69.8547 246.931 71.1725C246.198 72.5016 245.928 73.6843 245.816 74.4727C245.703 75.2724 245.714 75.6892 245.68 75.6892C245.68 75.6892 245.624 75.2611 245.703 74.4502C245.782 73.6505 246.018 72.4453 246.739 71.0599C247.449 69.697 248.71 68.1426 250.647 67.0613C252.551 65.9801 254.702 64.7523 257.078 63.4007C258.272 62.7249 259.522 62.0153 260.817 61.2719C262.124 60.5511 263.453 59.7176 264.94 59.0418C267.89 57.6789 271.359 56.8341 275.031 56.8229C276.867 56.8229 278.748 57.0256 280.617 57.4649C282.475 57.8929 284.39 58.5574 286.034 59.7401C289.357 62.0266 291.655 65.9801 291.97 70.2489C292.128 72.3777 291.835 74.5178 291.091 76.4663C290.359 78.4149 289.177 80.1495 287.735 81.5461C286.294 82.9541 284.582 84.0241 282.768 84.6887C280.955 85.3757 279.029 85.601 277.205 85.5785C269.963 85.5559 263.442 85.5334 257.934 85.5109C256.56 85.4884 255.265 85.5559 254.003 85.3982C252.753 85.2293 251.616 84.8238 250.647 84.2944C248.699 83.2019 247.46 81.6588 246.728 80.3072C246.03 78.9218 245.77 77.7166 245.703 76.9169C245.635 76.1059 245.68 75.6779 245.68 75.6779H245.669Z" fill="#263238"/>
<path d="M669.28 222.429C669.28 222.429 669.28 222.159 669.314 221.652C669.348 221.123 669.404 220.357 669.471 219.366C669.528 218.363 669.652 217.124 669.719 215.649C669.764 214.173 669.832 212.472 669.888 210.569C669.911 208.654 669.888 206.525 669.854 204.205C669.708 201.885 669.697 199.35 669.381 196.658C668.897 191.252 667.996 185.113 666.126 178.536C665.158 175.269 664.054 171.856 662.534 168.455C661.092 165.019 659.256 161.595 657.094 158.216C652.803 151.436 646.732 145.196 639.49 139.834C632.226 134.496 623.632 130.204 614.228 127.377C604.835 124.494 594.609 123.446 584.202 123.378C573.784 123.356 563.603 124.764 554.243 127.737C549.569 129.213 545.098 131.071 540.908 133.245C536.73 135.43 532.889 138.044 529.33 140.814C522.246 146.401 516.266 152.663 511.49 159.106C509.136 162.35 507.233 165.729 505.566 169.063C503.989 172.442 502.559 175.72 501.466 178.964C496.905 191.872 495.475 202.966 494.968 210.569C494.788 214.387 494.81 217.361 494.9 219.366C494.957 220.357 495.002 221.123 495.036 221.652C495.058 222.17 495.058 222.429 495.058 222.429C495.058 222.429 495.024 222.17 494.968 221.652C494.923 221.123 494.855 220.357 494.776 219.366C494.641 217.349 494.585 214.376 494.731 210.546C495.171 202.921 496.545 191.781 501.072 178.817C502.165 175.562 503.584 172.262 505.161 168.86C506.827 165.504 508.742 162.102 511.107 158.813C515.894 152.314 521.886 146.007 529.004 140.386C532.585 137.593 536.437 134.957 540.649 132.75C544.873 130.565 549.367 128.684 554.074 127.197C563.49 124.201 573.75 122.77 584.213 122.804C594.665 122.872 604.936 123.93 614.397 126.836C623.858 129.686 632.496 134.011 639.806 139.406C643.466 142.098 646.788 145.038 649.762 148.147C652.735 151.244 655.359 154.533 657.499 157.957C659.673 161.359 661.509 164.817 662.939 168.275C664.46 171.699 665.541 175.134 666.509 178.423C668.368 185.035 669.235 191.207 669.697 196.625C670.001 199.328 669.99 201.873 670.125 204.194C670.125 206.525 670.136 208.654 670.102 210.569C670.012 212.484 669.944 214.173 669.877 215.66C669.787 217.135 669.652 218.374 669.573 219.377C669.483 220.368 669.415 221.123 669.359 221.663C669.303 222.181 669.269 222.441 669.269 222.441L669.28 222.429Z" fill="white"/>
<path d="M395.215 81.3202C395.215 81.3202 395.125 81.3427 394.956 81.354C394.753 81.354 394.494 81.3765 394.19 81.3878C393.469 81.399 392.489 81.4216 391.25 81.4553C388.648 81.5004 384.966 81.568 380.449 81.6468C371.327 81.8158 358.735 82.1537 344.814 82.5366C330.894 82.9196 318.291 83.1899 309.168 83.2462C304.607 83.28 300.912 83.28 298.356 83.2462C297.117 83.2237 296.137 83.2124 295.416 83.2012L294.65 83.1787C294.481 83.1787 294.391 83.1561 294.391 83.1449C294.391 83.1336 294.481 83.1223 294.65 83.1111C294.853 83.1111 295.112 83.0885 295.416 83.0773C296.137 83.066 297.117 83.0435 298.356 83.0097C300.957 82.9647 304.64 82.8971 309.157 82.8182C318.279 82.6493 330.882 82.3114 344.803 81.9284C358.724 81.5455 371.327 81.2751 380.449 81.2188C385.011 81.185 388.705 81.185 391.261 81.2188C392.5 81.2414 393.48 81.2526 394.201 81.2639C394.505 81.2639 394.753 81.2864 394.967 81.2864C395.136 81.2864 395.226 81.3089 395.226 81.3202H395.215Z" fill="white"/>
<path d="M380.28 98.2607C380.28 98.4184 375.865 98.5536 370.414 98.5536C364.963 98.5536 360.548 98.4184 360.548 98.2607C360.548 98.1031 364.963 97.9679 370.414 97.9679C375.865 97.9679 380.28 98.1031 380.28 98.2607Z" fill="white"/>
<path d="M383.907 37.9788C383.963 38.1252 371.721 43.2276 356.55 49.3662C341.379 55.5047 329.035 60.3593 328.968 60.2129C328.9 60.0664 341.154 54.9641 356.325 48.8255C371.495 42.6869 383.839 37.8324 383.896 37.9788H383.907Z" fill="white"/>
<path d="M359.084 41.8314C359.152 41.9779 347.483 47.114 333.033 53.3089C318.583 59.5038 306.814 64.3921 306.758 64.2457C306.69 64.0993 318.358 58.9631 332.808 52.7682C347.258 46.5846 359.028 41.685 359.084 41.8314Z" fill="white"/>
<path d="M516.491 35.85C516.547 35.9965 504.305 41.0988 489.134 47.2374C473.963 53.376 461.619 58.2305 461.551 58.0841C461.495 57.9376 473.738 52.8353 488.908 46.6967C504.079 40.5581 516.423 35.7036 516.479 35.85H516.491Z" fill="white"/>
<path d="M491.679 39.7022C491.747 39.8486 480.079 44.9847 465.629 51.1796C451.179 57.3745 439.409 62.2629 439.353 62.1164C439.285 61.97 450.953 56.8339 465.403 50.639C479.853 44.4553 491.623 39.5557 491.679 39.7022Z" fill="white"/>
<path d="M518.89 81.3094C518.89 81.467 494.529 81.7486 464.48 81.9288C434.42 82.109 410.07 82.1203 410.07 81.9626C410.07 81.8049 434.42 81.5234 464.48 81.3431C494.529 81.1629 518.89 81.1517 518.89 81.3094Z" fill="white"/>
<path d="M545.864 97.3145C545.864 97.4722 539.039 97.6749 530.603 97.7537C522.167 97.8326 515.342 97.765 515.342 97.6073C515.342 97.4496 522.167 97.2469 530.603 97.168C539.028 97.0892 545.864 97.1568 545.864 97.3145Z" fill="white"/>
<path d="M79.4211 88.9908C79.4211 88.9908 79.1958 89.0584 78.7566 89.1147C78.261 89.1823 77.6303 89.2611 76.8419 89.3625C76.0085 89.4526 74.9948 89.5877 73.8235 89.7792C72.6522 89.9707 71.3119 90.1397 69.8478 90.4325C66.9082 90.9394 63.4393 91.7165 59.6213 92.7303C55.8258 93.789 51.6811 95.1068 47.4464 96.7513C43.2116 98.4296 39.281 100.265 35.7783 102.079C32.2868 103.926 29.2234 105.717 26.7118 107.35C25.4391 108.127 24.3354 108.916 23.3556 109.58C22.3644 110.234 21.531 110.831 20.8665 111.326C20.2245 111.777 19.7065 112.148 19.301 112.441C18.9406 112.689 18.7379 112.813 18.7266 112.802C18.7153 112.79 18.8843 112.633 19.2222 112.351C19.6164 112.036 20.1119 111.642 20.7314 111.146C21.3846 110.617 22.1955 109.997 23.1754 109.31C24.1439 108.623 25.2364 107.812 26.4978 107.001C28.9869 105.323 32.0503 103.487 35.5305 101.606C39.0332 99.7586 42.9864 97.8889 47.2437 96.2107C51.5122 94.5549 55.6681 93.2371 59.4974 92.2121C63.338 91.2209 66.8294 90.4888 69.7915 90.027C71.2669 89.7567 72.6184 89.6103 73.7897 89.4638C74.9723 89.2949 75.9859 89.2048 76.8194 89.1485C77.6078 89.0922 78.2385 89.0471 78.7453 89.002C79.1845 88.9795 79.4211 88.9682 79.4211 89.002V88.9908Z" fill="white"/>
<path d="M280.538 62.4207C280.538 62.4207 280.2 61.9814 279.457 61.3732C278.714 60.7762 277.441 60.0892 275.74 59.8751C274.028 59.6499 271.967 59.9427 269.737 60.5284C267.496 61.0916 265.086 61.88 262.642 62.9388C257.743 65.0451 253.756 67.8497 251.109 70.1136C248.428 72.3663 247.021 74.022 246.931 73.9432C246.897 73.9207 247.235 73.4927 247.877 72.7493C248.53 72.0172 249.51 70.9809 250.827 69.8095C253.429 67.4442 257.439 64.5495 262.405 62.4094C264.883 61.3394 267.327 60.551 269.602 60.0103C271.855 59.4471 274.006 59.1881 275.797 59.4697C277.587 59.7513 278.883 60.5284 279.615 61.2155C279.986 61.5534 280.223 61.8688 280.369 62.0828C280.505 62.3081 280.572 62.432 280.55 62.4432L280.538 62.4207Z" fill="white"/>
<path d="M415.418 32.6733C415.418 32.6733 413.751 33.1802 410.62 33.1577C409.066 33.1239 407.162 32.9324 405 32.4593C402.838 31.9862 400.427 31.2429 397.837 30.2517C395.235 29.2718 392.465 28.0215 389.469 26.7488C387.96 26.1405 386.405 25.5098 384.795 24.8565C383.184 24.2145 381.484 23.6626 379.772 23.0318C372.856 20.6552 365.085 18.5264 356.818 16.7806C340.273 13.3115 324.979 11.8697 313.919 11.4417C311.148 11.2953 308.648 11.2953 306.452 11.2277C304.267 11.2277 302.375 11.2277 300.809 11.2277C299.289 11.2615 298.106 11.284 297.239 11.3066C296.856 11.3066 296.552 11.3066 296.315 11.3066C296.101 11.3066 296 11.3066 296 11.284C296 11.284 296.101 11.2615 296.315 11.239C296.552 11.2277 296.867 11.2052 297.239 11.1714C298.095 11.1263 299.289 11.0588 300.809 10.9799C302.375 10.9574 304.267 10.9236 306.463 10.8785C308.671 10.9123 311.182 10.8785 313.953 11.0024C325.035 11.3291 340.364 12.7032 356.953 16.1836C365.243 17.9295 373.037 20.092 379.963 22.5024C381.686 23.1332 383.387 23.6964 384.998 24.3496C386.608 25.0142 388.174 25.6562 389.683 26.2757C392.679 27.5823 395.427 28.8437 398.006 29.8349C400.574 30.8486 402.961 31.6146 405.09 32.1101C407.23 32.617 409.111 32.8197 410.643 32.8986C412.186 32.9436 413.391 32.8648 414.19 32.7634C414.562 32.7184 414.866 32.6846 415.114 32.6508C415.317 32.6283 415.429 32.6283 415.429 32.6283L415.418 32.6733Z" fill="#263238"/>
</svg>
